<svg xmlns="http://www.w3.org/2000/svg" width="1152" height="768" viewBox="0 0 1152 768">
  <defs>
    <linearGradient id="counter" x1="0%" y1="0%" x2="0%" y2="100%">
      <stop offset="0%" stop-color="#dcb480" />
      <stop offset="100%" stop-color="#c48e4f" />
    </linearGradient>
    <linearGradient id="planter" x1="0%" y1="0%" x2="0%" y2="100%">
      <stop offset="0%" stop-color="#fefefe" />
      <stop offset="100%" stop-color="#e3e3e3" />
    </linearGradient>
    <linearGradient id="lamp" x1="0%" y1="0%" x2="100%" y2="0%">
      <stop offset="0%" stop-color="#f2f4f7" />
      <stop offset="100%" stop-color="#d7dbe2" />
    </linearGradient>
  </defs>
  <rect width="1152" height="768" fill="#ede8df" />
  <rect y="140" width="1152" height="380" fill="#f8f6f2" />
  <g stroke="#dcd6ca" stroke-width="2">
    <rect x="0" y="140" width="110" height="36" fill="none" />
    <rect x="130" y="140" width="110" height="36" fill="none" />
    <rect x="260" y="140" width="110" height="36" fill="none" />
    <rect x="390" y="140" width="110" height="36" fill="none" />
    <rect x="520" y="140" width="110" height="36" fill="none" />
    <rect x="650" y="140" width="110" height="36" fill="none" />
    <rect x="780" y="140" width="110" height="36" fill="none" />
    <rect x="910" y="140" width="110" height="36" fill="none" />
    <rect x="1040" y="140" width="110" height="36" fill="none" />
  </g>
  <rect y="0" width="1152" height="150" fill="#ba8b4c" />
  <rect y="520" width="1152" height="248" fill="url(#counter)" />
  <rect x="906" y="560" width="210" height="150" rx="12" fill="#333944" />
  <circle cx="972" cy="617" r="38" fill="#545b67" />
  <circle cx="1054" cy="662" r="34" fill="#545b67" />
  <rect x="380" y="252" width="36" height="258" rx="18" fill="url(#lamp)" />
  <rect x="416" y="252" width="360" height="44" rx="22" fill="url(#lamp)" />
  <g fill="#dfe3e6">
    <circle cx="456" cy="274" r="10" />
    <circle cx="501" cy="274" r="10" />
    <circle cx="546" cy="274" r="10" />
    <circle cx="591" cy="274" r="10" />
    <circle cx="636" cy="274" r="10" />
    <circle cx="681" cy="274" r="10" />
  </g>
  <rect x="360" y="450" width="420" height="170" rx="48" fill="url(#planter)" stroke="#dcdfe4" stroke-width="4" />
  <g fill="#3aa45c">
    <path d="M420 458 C410 392,430 356,450 340 C470 356,480 392,470 458 Z" />
    <path d="M460 460 C450 400,470 360,490 350 C510 360,520 400,510 460 Z" />
    <path d="M500 462 C490 396,510 352,530 344 C550 352,560 396,550 462 Z" />
    <path d="M540 462 C530 398,550 350,570 340 C590 350,600 398,590 462 Z" />
    <path d="M580 460 C570 400,590 356,610 346 C630 356,640 400,630 460 Z" />
    <path d="M620 460 C610 396,630 352,650 344 C670 352,680 396,670 460 Z" />
    <path d="M660 456 C650 390,670 352,690 340 C710 352,720 390,710 456 Z" />
  </g>
  <g fill="#5ed282" opacity="0.5">
    <ellipse cx="560" cy="390" rx="220" ry="90" />
  </g>
</svg>

